#!OML:ASF \\Waltz\H\Terrain\Patient Classification 1\Animal2\Wednesday\Animal2.ASF
:FULLY-SPECIFIED
:DEGREES
1094
root 18.7561 17.3548 4.02924 3.09072 22.014 1.43796
lowerback 10.6285 -1.38958 6.39843
upperback -6.83109 -0.242875 4.28462
thorax -13.6054 -0.423218 1.20573
lowerneck 8.57249 8.02915 20.3561
upperneck -8.43069 11.802 -20.045
head -1.3429 6.26973 -9.8257
rclavicle -1.78906e-014 -4.45278e-014
rhumerus -55.1694 -31.4824 -18.4144
rradius 44.3979
rwrist 11.9318
rhand -24.6033 28.1508
rfingers 7.12502
rthumb 1.89469 -1.82058
lclavicle -1.78906e-014 -4.45278e-014
lhumerus -62.8774 18.0268 0.343306
lradius 38.9842
lwrist 12.2491
lhand -40.7308 35.1709
lfingers 7.12502
lthumb -13.6721 64.7018
rfemur -17.341 4.78959 13.5919
rtibia 45.6161
rfoot -22.719 -3.2326
rtoes 13.6456
lfemur -17.5037 -1.1898 -4.48399
ltibia 39.7673
lfoot -16.3347 6.34766
ltoes -30.2133
1095
root 18.6645 17.2911 3.96565 3.15986 21.841 1.45995
lowerback 10.7345 -1.56615 6.37858
upperback -6.80622 -0.460297 4.41281
thorax -13.649 -0.515147 1.41128
lowerneck 8.33308 8.22226 20.1318
upperneck -8.03338 12.0379 -20.0251
head -1.15618 6.3866 -9.73693
rclavicle -3.00165e-014 1.74931e-014
rhumerus -55.5451 -31.8808 -19.0265
rradius 43.6381
rwrist 12.1838
rhand -20.8404 28.6025
rfingers 7.12502
rthumb 5.5284 -1.30535
lclavicle -3.00165e-014 1.74931e-014
lhumerus -63.8735 18.8812 2.47353
lradius 39.5844
lwrist 14.3678
lhand -40.5445 34.8159
lfingers 7.12502
lthumb -13.4927 64.3588
rfemur -18.2626 4.46408 13.7885
rtibia 46.4769
rfoot -23.4451 -2.97358
rtoes 16.9143
lfemur -17.1201 -0.875706 -4.1957
ltibia 40.749
lfoot -17.0107 6.15877
ltoes -30.0669
1096
root 18.5713 17.2349 3.89673 3.31493 21.8007 1.37837
lowerback 10.4763 -1.37611 6.28786
upperback -6.53175 -0.229195 4.70485
thorax -13.1578 -0.372996 1.70999
lowerneck 6.90797 8.3856 19.0581
upperneck -7.36274 11.9828 -19.5272
head -0.841883 6.30811 -9.28505
rclavicle 2.84262e-014 1.27222e-014
rhumerus -56.5089 -33.0008 -18.2591
rradius 42.7234
rwrist 12.7431
rhand -16.9169 28.6166
rfingers 7.12502
rthumb 9.31553 -1.15753
lclavicle 2.84262e-014 1.27222e-014
lhumerus -63.7905 20.1887 6.08313
lradius 39.9837
lwrist 16.4258
lhand -39.5983 34.939
lfingers 7.12502
lthumb -12.5805 64.5402
rfemur -19.2278 4.25528 14.0321
rtibia 47.2168
rfoot -24.1082 -2.52715
rtoes 19.5021
lfemur -16.865 -0.610948 -3.81717
ltibia 41.5885
lfoot -17.3662 6.37422
ltoes -31.8866
1097
root 18.4839 17.188 3.83069 3.42603 21.6286 1.47451
lowerback 10.474 -1.33507 6.19281
upperback -6.4701 -0.186279 4.77406
thorax -13.0817 -0.339119 1.82683
lowerneck 6.14882 8.56935 18.3731
upperneck -6.76658 12.1214 -18.9278
head -0.606634 6.33927 -8.90183
rclavicle -3.18055e-014 -4.29375e-014
rhumerus -57.5755 -33.7562 -17.5935
rradius 41.7274
rwrist 14.1045
rhand -12.9754 28.8521
rfingers 7.12502
rthumb 13.1169 -0.715378
lclavicle -3.18055e-014 -4.29375e-014
lhumerus -63.8809 20.8223 8.85994
lradius 40.1096
lwrist 18.4533
lhand -37.5315 35.2269
lfingers 7.12502
lthumb -10.5874 64.9402
rfemur -20.0335 4.34211 14.0211
rtibia 47.8618
rfoot -24.8616 -1.70407
rtoes 21.4838
lfemur -16.347 -0.441116 -3.70371
ltibia 42.3073
lfoot -17.6853 6.5573
ltoes -32.7419
1098
root 18.4024 17.1398 3.76692 3.34302 21.3416 1.59989
lowerback 10.7887 -1.41767 6.11951
upperback -6.5498 -0.289961 4.64064
thorax -13.3701 -0.392975 1.75813
lowerneck 6.3096 8.63291 18.5947
upperneck -6.56706 12.2763 -18.747
head -0.547436 6.41148 -8.87156
rclavicle -1.15295e-014 -4.92986e-014
rhumerus -58.8765 -34.0754 -17.188
rradius 40.9222
rwrist 15.8689
rhand -8.71717 29.4575
rfingers 7.12502
rthumb 17.2187 0.200401
lclavicle -1.15295e-014 -4.92986e-014
lhumerus -63.907 20.8409 11.3633
lradius 40.5625
lwrist 21.7991
lhand -35.3595 36.1816
lfingers 7.12502
lthumb -8.49177 65.9909
rfemur -20.6036 4.57959 13.9557
rtibia 48.4269
rfoot -25.493 -0.837504
rtoes 22.0293
lfemur -15.4901 -0.3285 -3.67066
ltibia 42.9464
lfoot -18.2762 6.19145
ltoes -30.5611
1099
root 18.3228 17.0926 3.69849 3.36149 21.1919 1.69266
lowerback 10.843 -1.55951 5.97832
upperback -6.54483 -0.512035 4.56091
thorax -13.3982 -0.490211 1.79982
lowerneck 6.40505 8.71777 18.9069
upperneck -6.58578 12.432 -18.7955
head -0.515463 6.4874 -8.93342
rclavicle 2.28602e-014 1.74931e-014
rhumerus -59.8909 -34.3824 -16.9146
rradius 40.2677
rwrist 17.5358
rhand -3.75355 30.0729
rfingers 7.12502
rthumb 21.9906 1.30299
lclavicle 2.28602e-014 1.74931e-014
lhumerus -64.0822 21.6558 13.109
lradius 40.7257
lwrist 23.7498
lhand -31.674 35.1604
lfingers 7.12502
lthumb -4.93396 65.0829
rfemur -21.3041 4.64954 13.9258
rtibia 48.9255
rfoot -25.803 -0.421923
rtoes 21.7915
lfemur -14.8014 -0.237096 -3.66261
ltibia 43.5099
lfoot -18.6528 6.28601
ltoes -29.7578
